<svg width="34" height="34" viewBox="0 0 34 34" fill="none" xmlns="http://www.w3.org/2000/svg">
<g filter="url(#filter0_dd_329_2250)">
<path d="M14.3333 10C12.4927 10 11 11.4927 11 13.3333V18.6667C11 20.5073 12.4927 22 14.3333 22H19.6667C21.5073 22 23 20.5073 23 18.6667V13.3333C23 11.4927 21.5073 10 19.6667 10H14.3333ZM21 11.3333C21.368 11.3333 21.6667 11.632 21.6667 12C21.6667 12.368 21.368 12.6667 21 12.6667C20.632 12.6667 20.3333 12.368 20.3333 12C20.3333 11.632 20.632 11.3333 21 11.3333ZM17 12.6667C18.8407 12.6667 20.3333 14.1593 20.3333 16C20.3333 17.8407 18.8407 19.3333 17 19.3333C15.1593 19.3333 13.6667 17.8407 13.6667 16C13.6667 14.1593 15.1593 12.6667 17 12.6667ZM17 14C16.4696 14 15.9609 14.2107 15.5858 14.5858C15.2107 14.9609 15 15.4696 15 16C15 16.5304 15.2107 17.0391 15.5858 17.4142C15.9609 17.7893 16.4696 18 17 18C17.5304 18 18.0391 17.7893 18.4142 17.4142C18.7893 17.0391 19 16.5304 19 16C19 15.4696 18.7893 14.9609 18.4142 14.5858C18.0391 14.2107 17.5304 14 17 14Z" fill="#374151"/>
<rect x="3.5" y="2.5" width="27" height="27" rx="13.5" stroke="#374151"/>
</g>
<defs>
<filter id="filter0_dd_329_2250" x="0" y="0" width="34" height="34" filterUnits="userSpaceOnUse" color-interpolation-filters="sRGB">
<feFlood flood-opacity="0" result="BackgroundImageFix"/>
<feColorMatrix in="SourceAlpha" type="matrix" values="0 0 0 0 0 0 0 0 0 0 0 0 0 0 0 0 0 0 127 0" result="hardAlpha"/>
<feOffset dy="1"/>
<feGaussianBlur stdDeviation="1.5"/>
<feColorMatrix type="matrix" values="0 0 0 0 0 0 0 0 0 0 0 0 0 0 0 0 0 0 0.1 0"/>
<feBlend mode="normal" in2="BackgroundImageFix" result="effect1_dropShadow_329_2250"/>
<feColorMatrix in="SourceAlpha" type="matrix" values="0 0 0 0 0 0 0 0 0 0 0 0 0 0 0 0 0 0 127 0" result="hardAlpha"/>
<feOffset dy="1"/>
<feGaussianBlur stdDeviation="1"/>
<feColorMatrix type="matrix" values="0 0 0 0 0 0 0 0 0 0 0 0 0 0 0 0 0 0 0.06 0"/>
<feBlend mode="normal" in2="effect1_dropShadow_329_2250" result="effect2_dropShadow_329_2250"/>
<feBlend mode="normal" in="SourceGraphic" in2="effect2_dropShadow_329_2250" result="shape"/>
</filter>
</defs>
</svg>
