<svg width="18" height="18" viewBox="0 0 18 18" fill="none" xmlns="http://www.w3.org/2000/svg">
<path fill-rule="evenodd" clip-rule="evenodd" d="M7.19999 3.59999C5.21176 3.59999 3.59999 5.21176 3.59999 7.19999C3.59999 9.18821 5.21176 10.8 7.19999 10.8C9.18821 10.8 10.8 9.18821 10.8 7.19999C10.8 5.21176 9.18821 3.59999 7.19999 3.59999ZM1.79999 7.19999C1.79999 4.21765 4.21765 1.79999 7.19999 1.79999C10.1823 1.79999 12.6 4.21765 12.6 7.19999C12.6 8.36624 12.2303 9.44613 11.6017 10.3289L15.9364 14.6636C16.2879 15.0151 16.2879 15.5849 15.9364 15.9364C15.5849 16.2879 15.0151 16.2879 14.6636 15.9364L10.3289 11.6017C9.44613 12.2303 8.36624 12.6 7.19999 12.6C4.21765 12.6 1.79999 10.1823 1.79999 7.19999Z" fill="white"/>
</svg>
