<svg width="34" height="34" viewBox="0 0 34 34" fill="none" xmlns="http://www.w3.org/2000/svg">
<g filter="url(#filter0_dd_329_2245)">
<path d="M23.388 12.124C23.2347 11.5507 22.7827 11.0987 22.2093 10.9453C21.1693 10.6667 17 10.6667 17 10.6667C17 10.6667 12.8307 10.6667 11.7907 10.9453C11.2173 11.0987 10.7653 11.5507 10.612 12.124C10.3333 13.164 10.3333 16 10.3333 16C10.3333 16 10.3333 18.836 10.612 19.876C10.7653 20.4493 11.2173 20.9013 11.7907 21.0547C12.8307 21.3333 17 21.3333 17 21.3333C17 21.3333 21.1693 21.3333 22.2093 21.0547C22.7833 20.9013 23.2347 20.4493 23.388 19.876C23.6667 18.836 23.6667 16 23.6667 16C23.6667 16 23.6667 13.164 23.388 12.124ZM15.6667 17.732V14.268C15.6667 14.0113 15.9447 13.8513 16.1667 13.9793L19.1667 15.7113C19.3887 15.8393 19.3887 16.1607 19.1667 16.2887L16.1667 18.0207C15.9447 18.1493 15.6667 17.9887 15.6667 17.732Z" fill="#374151"/>
<rect x="3.5" y="2.5" width="27" height="27" rx="13.5" stroke="#374151"/>
</g>
<defs>
<filter id="filter0_dd_329_2245" x="0" y="0" width="34" height="34" filterUnits="userSpaceOnUse" color-interpolation-filters="sRGB">
<feFlood flood-opacity="0" result="BackgroundImageFix"/>
<feColorMatrix in="SourceAlpha" type="matrix" values="0 0 0 0 0 0 0 0 0 0 0 0 0 0 0 0 0 0 127 0" result="hardAlpha"/>
<feOffset dy="1"/>
<feGaussianBlur stdDeviation="1.5"/>
<feColorMatrix type="matrix" values="0 0 0 0 0 0 0 0 0 0 0 0 0 0 0 0 0 0 0.1 0"/>
<feBlend mode="normal" in2="BackgroundImageFix" result="effect1_dropShadow_329_2245"/>
<feColorMatrix in="SourceAlpha" type="matrix" values="0 0 0 0 0 0 0 0 0 0 0 0 0 0 0 0 0 0 127 0" result="hardAlpha"/>
<feOffset dy="1"/>
<feGaussianBlur stdDeviation="1"/>
<feColorMatrix type="matrix" values="0 0 0 0 0 0 0 0 0 0 0 0 0 0 0 0 0 0 0.06 0"/>
<feBlend mode="normal" in2="effect1_dropShadow_329_2245" result="effect2_dropShadow_329_2245"/>
<feBlend mode="normal" in="SourceGraphic" in2="effect2_dropShadow_329_2245" result="shape"/>
</filter>
</defs>
</svg>
